<?xml version="1.0" encoding="UTF-8"?>
<svg xmlns="http://www.w3.org/2000/svg" width="500" height="1200" viewBox="0 0 500 1200">
  <defs>
    <linearGradient id="contourGradient" x1="0%" y1="0%" x2="100%" y2="100%">
      <stop offset="0%" stop-color="#f59e0b" stop-opacity="0.6" />
      <stop offset="50%" stop-color="#6b705c" stop-opacity="0.4" />
      <stop offset="100%" stop-color="#f59e0b" stop-opacity="0.6" />
    </linearGradient>

    <pattern id="topoPattern" x="0" y="0" width="40" height="40" patternUnits="userSpaceOnUse">
      <circle cx="20" cy="20" r="1" fill="#f59e0b" fill-opacity="0.3" />
      <circle cx="10" cy="10" r="0.5" fill="#6b705c" fill-opacity="0.2" />
      <circle cx="30" cy="30" r="0.5" fill="#6b705c" fill-opacity="0.2" />
    </pattern>
  </defs>

  <!-- Base background -->
  <rect width="100%" height="100%" fill="#2a3421" />

  <!-- Topographic texture -->
  <rect width="100%" height="100%" fill="url(#topoPattern)" />

  
  <!-- Contour lines - vertical emphasis, align with header at top -->
  <g stroke="url(#contourGradient)" stroke-width="0.7" fill="none" opacity="0.35">
    <!-- Top contours that connect to header -->
    <path d="M50,0 Q80,40 50,80 Q20,120 50,160" />
    <path d="M150,0 Q180,50 150,100 Q120,150 150,200" />
    <path d="M250,0 Q280,60 250,120 Q220,180 250,240" />
    <path d="M350,0 Q380,70 350,140 Q320,210 350,280" />
    <path d="M450,0 Q480,80 450,160 Q420,240 450,320" />

    <!-- Mid contours -->
    <path d="M100,400 Q130,480 100,560 Q70,640 100,720" />
    <path d="M200,450 Q230,530 200,610 Q170,690 200,770" />
    <path d="M300,500 Q330,580 300,660 Q270,740 300,820" />
    <path d="M400,550 Q430,630 400,710 Q370,790 400,870" />

    <!-- Bottom contours -->
    <path d="M80,900 Q110,960 80,1020 Q50,1080 80,1140 Q110,1200 80,1200" />
    <path d="M250,950 Q280,1010 250,1070 Q220,1130 250,1190" />
  </g>

  <!-- Grid lines -->
  <g stroke="#6b705c" stroke-width="0.3" stroke-opacity="0.25" fill="none">
    <line x1="0" y1="0" x2="0" y2="1200" />
    <line x1="100" y1="0" x2="100" y2="1200" />
    <line x1="200" y1="0" x2="200" y2="1200" />
    <line x1="300" y1="0" x2="300" y2="1200" />
    <line x1="400" y1="0" x2="400" y2="1200" />
    <line x1="500" y1="0" x2="500" y2="1200" />
    <line x1="0" y1="0" x2="500" y2="0" />
    <line x1="0" y1="100" x2="500" y2="100" />
    <line x1="0" y1="200" x2="500" y2="200" />
    <line x1="0" y1="300" x2="500" y2="300" />
    <line x1="0" y1="400" x2="500" y2="400" />
    <line x1="0" y1="500" x2="500" y2="500" />
    <line x1="0" y1="600" x2="500" y2="600" />
    <line x1="0" y1="700" x2="500" y2="700" />
    <line x1="0" y1="800" x2="500" y2="800" />
    <line x1="0" y1="900" x2="500" y2="900" />
    <line x1="0" y1="1000" x2="500" y2="1000" />
    <line x1="0" y1="1100" x2="500" y2="1100" />
    <line x1="0" y1="1200" x2="500" y2="1200" />
  </g>

  <!-- Islands/elevation markers -->
  <g stroke="url(#contourGradient)" stroke-width="0.6" fill="none" opacity="0.3">
    <ellipse cx="250" cy="400" rx="40" ry="25" />
    <ellipse cx="235" cy="410" rx="25" ry="15" />
    <ellipse cx="150" cy="700" rx="30" ry="20" />
    <ellipse cx="140" cy="695" rx="15" ry="10" />
    <ellipse cx="350" cy="950" rx="35" ry="22" />
  </g>

  <!-- Coordinate markers -->
  <g opacity="0.3">
    <g transform="translate(100,300)">
      <circle cx="0" cy="0" r="2.5" fill="#f59e0b" opacity="0.8" />
      <circle cx="0" cy="0" r="5" stroke="#f59e0b" stroke-width="0.4" fill="none" />
    </g>
    <g transform="translate(380,600)">
      <circle cx="0" cy="0" r="2.5" fill="#f59e0b" opacity="0.8" />
      <circle cx="0" cy="0" r="5" stroke="#f59e0b" stroke-width="0.4" fill="none" />
    </g>
    <g transform="translate(200,900)">
      <circle cx="0" cy="0" r="2.5" fill="#f59e0b" opacity="0.8" />
      <circle cx="0" cy="0" r="5" stroke="#f59e0b" stroke-width="0.4" fill="none" />
    </g>
  </g>

  <!-- Depth soundings -->
  <g font-size="5" fill="#6b705c" opacity="0.2" font-family="monospace">
    <text x="120" y="350">24</text>
    <text x="250" y="450">31</text>
    <text x="350" y="550">18</text>
    <text x="180" y="750">27</text>
    <text x="300" y="850">35</text>
    <text x="220" y="1050">29</text>
  </g>
  
</svg>